<svg width="195" height="100" viewBox="0 0 195 100" fill="none" xmlns="http://www.w3.org/2000/svg">
<path d="M0.106172 7.1V0.2H30.1062V7.1H18.7062V41H11.5062V7.1H0.106172ZM43.7482 41H36.5482V0.2H43.7482V41ZM78.6452 34.1V41H55.0052V0.2H78.0452V7.1H62.2052V16.88H76.2452V23.78H62.2052V34.1H78.6452ZM87.1732 41V0.2H93.7732C96.9332 4.32 99.9332 8.68 102.773 13.28C105.613 17.84 108.193 22.54 110.513 27.38L109.973 15.2V0.2H116.873V41H110.273C107.713 35.96 105.053 30.9 102.293 25.82C99.5732 20.7 96.6732 15.88 93.5932 11.36L94.0732 25.4V41H87.1732ZM128.13 41V0.2H141.93C146.81 0.2 150.53 1.56 153.09 4.28C155.65 7 156.93 11 156.93 16.28V24.86C156.93 30.18 155.65 34.2 153.09 36.92C150.53 39.64 146.81 41 141.93 41H128.13ZM141.63 7.1H135.33V34.1H141.63C144.47 34.1 146.49 33.4 147.69 32C148.93 30.6 149.55 28.22 149.55 24.86V16.28C149.55 12.96 148.93 10.6 147.69 9.2C146.49 7.8 144.47 7.1 141.63 7.1ZM186.999 41L184.479 33.02H170.499L167.979 41H160.839L174.459 0.2H180.819L194.499 41H186.999ZM174.399 20.54L172.539 26.42H182.379L180.519 20.54L177.519 10.22L174.399 20.54ZM17.8849 99V66.36H28.0129C31.7569 66.36 34.6369 67.496 36.6529 69.768C38.6689 72.008 39.6769 75.112 39.6769 79.08V86.232C39.6769 90.232 38.6689 93.368 36.6529 95.64C34.6369 97.88 31.7569 99 28.0129 99H17.8849ZM27.9169 70.296H22.0609V95.112H27.9169C32.8769 95.112 35.3569 92.152 35.3569 86.232V79.08C35.3569 73.224 32.8769 70.296 27.9169 70.296ZM66.6874 95.112V99H48.4474V66.36H66.2074V70.296H52.6234V80.52H64.7674V84.456H52.6234V95.112H66.6874ZM87.2325 86.28C87.2325 89.288 87.8245 91.608 89.0085 93.24C90.2245 94.84 92.0805 95.64 94.5765 95.64C95.6645 95.64 96.7365 95.512 97.7925 95.256C98.8485 95 100.113 94.552 101.585 93.912L102.977 97.464C101.409 98.168 99.9205 98.68 98.5125 99C97.1045 99.32 95.7445 99.48 94.4325 99.48C90.6565 99.48 87.7925 98.296 85.8405 95.928C83.8885 93.56 82.9125 90.344 82.9125 86.28V79.08C82.9125 75.016 83.8885 71.8 85.8405 69.432C87.7925 67.064 90.6565 65.88 94.4325 65.88C95.7445 65.88 97.1045 66.04 98.5125 66.36C99.9525 66.68 101.409 67.192 102.881 67.896L101.537 71.496C98.9445 70.344 96.6245 69.768 94.5765 69.768C92.0805 69.768 90.2245 70.568 89.0085 72.168C87.8245 73.768 87.2325 76.072 87.2325 79.08V86.28ZM127.087 99L124.639 91.416H112.255L109.807 99H105.727L116.575 66.36H120.511L131.407 99H127.087ZM115.279 82.008L113.455 87.624H123.391L121.567 82.008L118.447 71.928L115.279 82.008ZM153.542 85.272H141.686V99H137.51V66.36H154.982V70.296H141.686V81.336H153.542V85.272ZM180.031 95.112V99H161.791V66.36H179.551V70.296H165.967V80.52H178.111V84.456H165.967V95.112H180.031Z" fill="#F5F5F5"/>
</svg>
